HIERARCHY
ROOT pelvis
{
  OFFSET 0 100 0
  CHANNELS 6 Xposition Yposition Zposition Zrotation Xrotation Yrotation
  JOINT pelvis_right_femur
  {
    OFFSET -10.78128 -3.44521 -0.5502486
    CHANNELS 3 Zrotation Xrotation Yrotation
    JOINT right_femur_tibia
    {
      OFFSET -0.8047443 -44.0398 -0.1307829
      CHANNELS 3 Zrotation Xrotation Yrotation
      JOINT right_tibia_foot
      {
        OFFSET 3.006224 -47.83518 -5
        CHANNELS 3 Zrotation Xrotation Yrotation
        End Site
        {
          OFFSET 0 -5 15
        }
      }
    }
  }
  JOINT pelvis_left_femur
  {
    OFFSET 10.78128 -3.44521 -0.5502486
    CHANNELS 3 Zrotation Xrotation Yrotation
    JOINT left_femur_tibia
    {
      OFFSET 0.8047443 -44.0398 -0.1307829
      CHANNELS 3 Zrotation Xrotation Yrotation
      JOINT left_tibia_foot
      {
        OFFSET -4.370144 -48.10324 -4.275266
        CHANNELS 3 Zrotation Xrotation Yrotation
        End Site
        {
          OFFSET 0 -5 15
        }
      }
    }
  }
  JOINT pelvis_spine1
  {
    OFFSET 0 6.468898 -3.129235
    CHANNELS 3 Zrotation Xrotation Yrotation
    JOINT spine1
    {
      OFFSET 0 23.15396 4.99043
      CHANNELS 3 Zrotation Xrotation Yrotation
      JOINT spine2
      {
        OFFSET 0 20.79997 -5.064912
        CHANNELS 3 Zrotation Xrotation Yrotation
        JOINT neck
        {
          OFFSET 0 14.38658 9.616178
          CHANNELS 3 Zrotation Xrotation Yrotation
          End Site
          {
            OFFSET 0 20 0
          }
        }
      }
      JOINT right_manubrium
      {
        OFFSET -5.722621 16.35077 3.967754
        CHANNELS 3 Zrotation Xrotation Yrotation
        JOINT right_clavicle
        {
          OFFSET -13.16364 1.694482 -4.693211
          CHANNELS 3 Zrotation Xrotation Yrotation
          JOINT right_humerus
          {
            OFFSET -28.5034 -0.3100689 -2.792744
            CHANNELS 3 Zrotation Xrotation Yrotation
            JOINT right_radius
            {
              OFFSET -25.15693 0.02248979 -1.271978
              CHANNELS 3 Zrotation Xrotation Yrotation
              End Site
              {
                OFFSET -15 0 0
              }
            }
          }
        }
      }
      JOINT left_manubrium
      {
        OFFSET 5.722621 16.35077 3.967754
        CHANNELS 3 Zrotation Xrotation Yrotation
        JOINT left_clavicle
        {
          OFFSET 13.16364 1.694482 -4.693211
          CHANNELS 3 Zrotation Xrotation Yrotation
          JOINT left_humerus
          {
            OFFSET 29.39168 -1.063119 -2.237045
            CHANNELS 3 Zrotation Xrotation Yrotation
            JOINT left_radius
            {
              OFFSET 24.59957 -0.9528479 0.9047498
              CHANNELS 3 Zrotation Xrotation Yrotation
              End Site
              {
                OFFSET 15 -0 -0
              }
            }
          }
        }
      }
    }
  }
}
MOTION
Frames: 23
Frame Time: 0.0416666666667
-1127.181 104.1818 2409.587 -11.13669 -3.431391 -70.9926 7.45206 7.169014 -2.083583 -0 10.09876 -0 -14.17623 -4.604311 -1.831922 1.601324 -12.00004 -4.688104 -0 43.54653 -0 1.941467 -3.088634 17.38161 -1.134345 -3.112257 9.306461 1.284671 14.32214 -6.533935 -1.393301 19.42222 4.939825 5.384963 -15.15522 0.9431478 2.479698 -29.28579 13.08653 84.25004 25.01414 -11.8778 -0 0 28.17003 -17.34108 8.955166 6.510005 3.54376 -25.09654 -9.548879 -95.04627 5.482474 37.0568 0 0 -4.067388 11.42489 9.198252 -1.428022
-1131.715 103.832 2411.421 -10.67233 -2.888579 -71.70824 7.415587 9.855538 -1.746232 -0 9.554896 -0 -13.87207 -7.953523 -1.877579 3.007957 -15.66839 -3.691213 -0 34.11823 -0 2.564931 -2.452542 17.62569 -1.445556 -3.237504 9.090188 1.427435 13.4788 -6.196642 -1.565516 19.46969 5.509908 5.494334 -15.13597 1.353699 3.011776 -29.15238 12.96611 83.30456 26.14596 -10.96743 -0 0 27.48582 -17.1188 8.779183 7.358531 3.362964 -24.36125 -9.363593 -95.06195 5.461151 37.70596 0 0 -3.672386 11.47332 9.090115 -0.9779574
-1136.346 103.0843 2413.401 -9.856957 -2.206114 -72.34187 7.274959 11.80398 -1.588335 -0 9.494866 -0 -13.51932 -11.0216 -1.813437 4.159339 -18.05763 -2.708855 -0 24.39588 -0 3.361275 -1.709136 17.40068 -1.711754 -3.328286 8.868142 1.519115 12.71054 -5.903381 -1.7084 19.52022 6.058407 5.641541 -15.12843 1.740234 3.467538 -28.91965 12.82814 82.50392 27.2539 -10.22996 -0 0 26.75766 -16.96591 8.618501 8.036084 3.324891 -23.79004 -9.145222 -94.96964 5.429344 37.99215 0 0 -3.52788 11.69234 9.055248 -0.8308087
-1141.214 102.1333 2415.582 -8.802641 -1.600359 -72.91957 6.753647 13.36107 -1.445667 -0 10.21011 -0 -12.97415 -13.35111 -1.649867 4.643067 -19.14387 -2.238796 -0 16.02471 -0 3.929664 -0.9470537 16.89747 -1.919688 -3.372166 8.681345 1.561871 12.11581 -5.680047 -1.811728 19.58051 6.508008 5.799685 -15.1275 2.04595 3.813787 -28.64875 12.7 81.92874 28.20359 -9.734749 -0 0 26.10096 -16.85182 8.451955 8.452404 3.380564 -23.41798 -8.956766 -94.82971 5.396917 38.00075 0 0 -3.533661 12.02468 9.064601 -0.9355005
-1146.421 101.1908 2417.993 -7.784564 -1.298913 -73.46635 5.680778 15.04902 -1.237578 -0 12.06529 -0 -12.15281 -14.53859 -1.31873 4.145334 -19.20915 -2.797157 -0 10.32699 -0 3.713627 -0.5021108 16.62188 -2.063212 -3.361264 8.549355 1.557563 11.75537 -5.535457 -1.866533 19.66037 6.808613 5.943631 -15.13295 2.242973 4.034326 -28.38028 12.60272 81.6286 28.90499 -9.512791 -0 0 25.58268 -16.76634 8.276759 8.577117 3.484087 -23.24712 -8.840462 -94.69151 5.378738 37.80888 0 0 -3.591473 12.41617 9.104801 -1.232479
-1152.013 100.4501 2420.633 -7.120239 -1.44332 -73.98768 4.070363 17.27171 -0.976931 -0 15.43781 -0 -11.17402 -14.16944 -0.7240361 2.62155 -18.66508 -4.64307 -0 7.93577 -0 2.37217 -0.7606513 17.08184 -2.141397 -3.294226 8.473644 1.507673 11.64649 -5.466231 -1.867864 19.76519 6.943384 6.057948 -15.1474 2.32969 4.128352 -28.13159 12.54594 81.61446 29.32456 -9.558762 -0 0 25.22484 -16.71595 8.105569 8.426789 3.607951 -23.25967 -8.809498 -94.58183 5.385643 37.46546 0 0 -3.637255 12.83006 9.175237 -1.675518
-1157.966 100.0848 2423.467 -7.004923 -2.040937 -74.45112 2.111417 19.88507 -0.7301094 -0 20.61494 -0 -10.39768 -11.71302 0.1610994 0.3318645 -17.72938 -7.522988 -0 8.688795 -0 0.2327239 -1.910746 18.37377 -2.15574 -3.175839 8.44753 1.415208 11.77528 -5.4662 -1.816108 19.89158 6.920303 6.13832 -15.17428 2.317916 4.10432 -27.90465 12.52979 81.86901 29.46999 -9.850268 -0 0 25.02258 -16.71024 7.956556 8.036503 3.74525 -23.43516 -8.854386 -94.50587 5.418965 36.99089 0 0 -3.654473 13.24837 9.277729 -2.237778
-1164.185 100.2471 2426.429 -7.421824 -2.954021 -74.77968 0.1583823 21.96195 -0.608782 -0 27.65175 -0 -10.30449 -6.72008 1.247245 -2.202363 -16.27053 -10.61138 -0 11.69036 -0 -1.662269 -3.75383 20.05993 -2.107092 -3.0154 8.463824 1.285516 12.11328 -5.533186 -1.716055 20.02693 6.759728 6.188333 -15.21694 2.221757 3.972758 -27.69528 12.54916 82.36248 29.36658 -10.36538 -0 0 24.96227 -16.75461 7.848306 7.439964 3.905186 -23.76125 -8.952468 -94.45398 5.470302 36.38445 0 0 -3.670082 13.66506 9.41039 -2.907893
-1170.496 101.0284 2429.414 -8.146877 -3.904756 -74.86813 -1.30203 22.02963 -0.7710333 -0 36.12373 -0 -11.21589 0.504925 2.388972 -4.328807 -13.95342 -12.83017 -0 15.43074 -0 -2.177841 -5.746048 21.44406 -1.993663 -2.826001 8.516534 1.125954 12.62518 -5.670284 -1.575568 20.15038 6.487499 6.215586 -15.27844 2.053948 3.741813 -27.49859 12.59616 83.05984 29.04233 -11.08522 -0 0 25.03103 -16.85311 7.801752 6.66944 4.108336 -24.23428 -9.072333 -94.40648 5.523612 35.63125 0 0 -3.745431 14.07694 9.567866 -3.681683
-1176.643 102.3799 2432.285 -8.840606 -4.546315 -74.63461 -1.883867 18.92451 -1.289946 -0 44.77864 -0 -12.95026 8.204244 3.406124 -5.579116 -10.55466 -13.57945 -0 18.16597 -0 -1.083129 -7.432549 21.99483 -1.811718 -2.625013 8.596998 0.9452398 13.2649 -5.881325 -1.405221 20.23524 6.1356 6.228898 -15.36016 1.829048 3.417318 -27.30982 12.66029 83.91582 28.52659 -11.98045 -0 0 25.21392 -17.01671 7.843549 5.773741 4.381812 -24.8493 -9.17423 -94.33458 5.558669 34.70865 0 0 -3.967187 14.47521 9.745386 -4.550616
-1182.366 104.0514 2434.915 -9.235592 -4.6725 -74.08918 -1.658411 12.91549 -2.011991 -0 51.45156 -0 -14.71447 13.63569 3.975432 -5.971372 -6.263339 -13.30453 -0 18.75414 -0 0.5107182 -8.916079 21.64818 -1.560299 -2.433184 8.68711 0.7524467 13.96789 -6.161524 -1.218016 20.25707 5.745199 6.235878 -15.45908 1.569588 3.007484 -27.12087 12.72831 84.86667 27.85714 -12.99214 -0 0 25.4781 -17.26921 8.002195 4.840688 4.749516 -25.5833 -9.214979 -94.20073 5.558455 33.59544 0 0 -4.4314 14.84106 9.944194 -5.48877
-1187.539 105.645 2437.244 -9.280159 -4.422812 -73.34938 -1.128939 5.799531 -2.779872 -0 53.82837 -0 -15.62042 15.10897 3.808433 -5.883046 -1.700347 -12.98641 -0 17.30056 -0 1.165212 -10.63948 20.72812 -1.248881 -2.270254 8.757585 0.5566868 14.65462 -6.489957 -1.027935 20.20724 5.363646 6.240324 -15.56573 1.307999 2.53057 -26.91677 12.78717 85.83433 27.0864 -14.03216 -0 0 25.75472 -17.63668 8.290526 3.993799 5.215807 -26.38429 -9.164668 -93.9664 5.519632 32.28764 0 0 -5.214223 15.15105 10.17245 -6.445986
-1192.241 106.7763 2439.308 -9.05113 -4.151362 -72.56766 -0.7995639 -0.6171705 -3.671887 -0 50.84616 -0 -15.40759 13.25048 3.074466 -5.675288 2.506828 -13.0704 -0 14.73203 -0 0.5577179 -12.75124 19.53109 -0.9015647 -2.15031 8.781985 0.3699284 15.25271 -6.835452 -0.848807 20.09908 5.032247 6.241591 -15.66751 1.077077 2.019372 -26.6837 12.82913 86.74749 26.27739 -15.01832 -0 0 25.95202 -18.11407 8.683885 3.339247 5.754011 -27.18447 -9.025236 -93.61292 5.454498 30.82372 0 0 -6.336605 15.39138 10.43305 -7.356383
-1196.677 107.2166 2441.202 -8.60513 -4.067726 -71.84855 -0.8292896 -5.755209 -4.782701 -0 43.48112 -0 -14.38007 9.910573 2.21931 -5.545056 6.067632 -13.30519 -0 11.99066 -0 -0.520749 -14.97909 18.22813 -0.5514041 -2.080528 8.757894 0.2087984 15.72175 -7.171867 -0.694069 19.95654 4.773201 6.237282 -15.75533 0.8945501 1.515273 -26.42865 12.8538 87.55774 25.49079 -15.9071 -0 0 26.012 -18.64283 9.121115 2.906069 6.313662 -27.92797 -8.828786 -93.16332 5.378605 29.30432 0 0 -7.736863 15.56443 10.7078 -8.15731
-1201.058 106.9394 2443.028 -7.989436 -4.124555 -71.23044 -1.040254 -9.923469 -6.00966 -0 34.11227 -0 -13.01125 6.699523 1.552271 -5.552069 8.941261 -13.30439 -0 9.793544 -0 -1.154993 -16.95229 17.04468 -0.2293365 -2.059951 8.707446 0.08768498 16.05924 -7.481683 -0.5734106 19.80165 4.585741 6.225033 -15.82531 0.7590867 1.055792 -26.18472 12.86568 88.2367 24.77238 -16.6788 -0 0 25.9505 -19.14016 9.535482 2.653925 6.837337 -28.57883 -8.618459 -92.67962 5.302616 27.87637 0 0 -9.265253 15.67721 10.96333 -8.801276
-1205.546 106.0704 2444.869 -7.292839 -4.181223 -70.71354 -1.177473 -13.50863 -7.178437 -0 25.00873 -0 -11.7359 4.473931 1.174398 -5.666875 11.18511 -12.89748 -0 8.622099 -0 -0.963496 -18.44536 16.1798 0.04342515 -2.078552 8.658065 0.01019692 16.28963 -7.7492 -0.4881813 19.65306 4.45176 6.201294 -15.87556 0.6592772 0.6657861 -25.99371 12.87141 88.76961 24.14539 -17.30908 -0 0 25.83634 -19.54733 9.883988 2.527466 7.272313 -29.11093 -8.433796 -92.23561 5.23724 26.68566 0 0 -10.72004 15.72783 11.17296 -9.25622
-1210.248 104.8029 2446.77 -6.629197 -4.149711 -70.28872 -1.087863 -16.64929 -8.203022 -0 17.38645 -0 -10.8317 3.424936 1.07522 -5.824565 12.8968 -12.11644 -0 8.723533 -0 -0.08714846 -19.38658 15.66024 0.2571247 -2.121346 8.629116 -0.02994599 16.44799 -7.960181 -0.4325183 19.52561 4.346419 6.161497 -15.90442 0.582111 0.3558709 -25.88843 12.87786 89.15385 23.61125 -17.76954 -0 0 25.74774 -19.84451 10.15206 2.487462 7.579142 -29.50548 -8.304161 -91.89057 5.195247 25.83627 0 0 -11.91402 15.7055 11.32604 -9.504354
-1215.243 103.3426 2448.743 -6.10972 -4.011613 -69.95377 -0.707925 -19.28495 -9.077639 -0 11.58576 -0 -10.41906 3.384602 1.21433 -5.960656 14.16687 -11.06251 -0 10.24377 -0 1.133 -19.75949 15.38514 0.4102882 -2.174709 8.631344 -0.04183949 16.56574 -8.10601 -0.399034 19.42764 4.248299 6.102611 -15.91062 0.5161683 0.1271414 -25.88808 12.89036 89.39459 23.16088 -18.04044 -0 0 25.74701 -20.03478 10.34178 2.51039 7.736357 -29.75404 -8.246034 -91.68042 5.185711 25.38247 0 0 -12.71944 15.59867 11.42106 -9.541119
-1220.586 101.8952 2450.783 -5.839789 -3.782928 -69.72304 0.00460258 -21.24149 -9.789519 -0 7.623802 -0 -10.52413 4.055677 1.536625 -6.016197 15.03031 -9.835061 -0 13.3739 -0 2.366278 -19.53073 15.23001 0.5047049 -2.229862 8.670788 -0.03186357 16.66296 -8.184456 -0.3833003 19.36047 4.144349 6.024685 -15.8931 0.4521168 -0.02207509 -26.00231 12.91207 89.49735 22.78679 -18.11354 -0 0 25.87632 -20.1254 10.45937 2.581295 7.73738 -29.8564 -8.264679 -91.62308 5.209385 25.34568 0 0 -13.06907 15.39936 11.45617 -9.369671
-1226.301 100.6694 2452.864 -5.921899 -3.493813 -69.63387 1.095423 -22.25513 -10.25594 -0 5.496154 -0 -11.10805 5.079389 1.943477 -5.929142 15.43154 -8.536878 -0 18.36637 -0 3.341084 -18.63881 15.10405 0.5417866 -2.283382 8.750901 -0.001593381 16.74657 -8.197601 -0.3851908 19.3204 4.030506 5.930338 -15.85077 0.3832428 -0.09177565 -26.2352 12.9443 89.46317 22.48859 -17.98834 -0 0 26.15895 -20.11865 10.5085 2.691306 7.584123 -29.81558 -8.358011 -91.72563 5.259098 25.73169 0 0 -12.94016 15.10315 11.42516 -8.994096
-1232.357 99.86791 2454.943 -6.438844 -3.188484 -69.74629 2.57596 -21.9869 -10.31938 -0 5.174137 -0 -12.05371 6.041871 2.261294 -5.631184 15.20184 -7.305238 -0 25.37969 -0 3.858029 -17.0321 14.97773 0.5210687 -2.336705 8.871775 0.05241323 16.81017 -8.149931 -0.408399 19.30129 3.91153 5.823575 -15.78311 0.3071251 -0.0787917 -26.58512 12.98691 89.28808 22.27363 -17.66984 -0 0 26.59605 -20.01056 10.48849 2.83907 7.28301 -29.63412 -8.519169 -91.98634 5.322818 26.53539 0 0 -12.34628 14.70892 11.31829 -8.416215
-1238.633 99.65109 2456.96 -7.399487 -2.927062 -70.12574 4.331228 -20.10311 -9.815109 -0 6.417526 -0 -13.15172 6.529518 2.25865 -5.064268 14.06149 -6.321434 -0 34.13338 -0 3.834484 -14.74398 14.89264 0.4403649 -2.395461 9.027463 0.1377655 16.83362 -8.047313 -0.4592125 19.29646 3.801708 5.709106 -15.69169 0.2283146 0.02278689 -27.04069 13.0382 88.96511 22.15631 -17.1694 -0 0 27.15874 -19.79418 10.39584 3.033714 6.845251 -29.31325 -8.73634 -92.39176 5.387118 27.73357 0 0 -11.34075 14.22099 11.12607 -7.637805
-1244.916 100.0686 2458.852 -8.66204 -2.771331 -70.80066 6.042718 -16.48198 -8.695877 -0 8.560423 -0 -14.1345 6.266143 1.763604 -4.222786 11.69894 -5.749943 -0 43.48229 -0 3.359444 -11.97821 14.93115 0.2972278 -2.46808 9.202482 0.2636153 16.78341 -7.896061 -0.5444861 19.30014 3.72591 5.592733 -15.58188 0.1612966 0.2199305 -27.57427 13.09423 88.48804 22.15846 -16.5065 -0 0 27.78012 -19.46691 10.22872 3.297393 6.291042 -28.85415 -8.990064 -92.91116 5.440381 29.26998 0 0 -10.024 13.65431 10.84561 -6.669336
